<svg width="20" height="18" viewBox="0 0 20 18" fill="none" xmlns="http://www.w3.org/2000/svg">
<path fill-rule="evenodd" clip-rule="evenodd" d="M17 4H14V2.5C14 1.11929 12.8807 0 11.5 0H8.5C7.11929 0 6 1.11929 6 2.5V4H3C1.34315 4 0 5.34315 0 7V15C0 16.6569 1.34315 18 3 18H17C18.6569 18 20 16.6569 20 15V7C20 5.34315 18.6569 4 17 4ZM13 6V16H7V6H13ZM8.5 2C8.22386 2 8 2.22386 8 2.5V4H12V2.5C12 2.22386 11.7761 2 11.5 2H8.5ZM2 15V7C2 6.44772 2.44772 6 3 6H5V16H3C2.44772 16 2 15.5523 2 15ZM17 16C17.5523 16 18 15.5523 18 15V7C18 6.44772 17.5523 6 17 6H15V16H17Z" fill="#A6A6A6"/>
</svg>
