<svg width="24" height="24" viewBox="0 0 24 24" fill="none" xmlns="http://www.w3.org/2000/svg">
<rect opacity="0.01" width="24" height="24" fill="black"/>
<path fill-rule="evenodd" clip-rule="evenodd" d="M2 12C2 6.47715 6.47715 2 12 2C14.6522 2 17.1957 3.05357 19.0711 4.92893C20.9464 6.8043 22 9.34784 22 12C22 17.5228 17.5228 22 12 22C6.47715 22 2 17.5228 2 12ZM4 12C4 16.4183 7.58172 20 12 20C14.1217 20 16.1566 19.1571 17.6569 17.6569C19.1571 16.1566 20 14.1217 20 12C20 7.58172 16.4183 4 12 4C7.58172 4 4 7.58172 4 12Z" fill="white"/>
<path d="M14.7 8.39023L10.92 13.3902L9.28999 11.2802C8.95033 10.8439 8.32129 10.7656 7.88499 11.1052C7.44868 11.4449 7.37033 12.0739 7.70999 12.5102L10.14 15.6202C10.3308 15.8617 10.6222 16.0019 10.93 16.0002C11.2395 15.9995 11.5312 15.8555 11.72 15.6102L16.29 9.61023C16.6269 9.1684 16.5418 8.53712 16.1 8.20023C15.6582 7.86333 15.0269 7.9484 14.69 8.39023H14.7Z" fill="white"/>
</svg>
