<svg width="24" height="24" viewBox="0 0 24 24" fill="none" xmlns="http://www.w3.org/2000/svg">
<rect opacity="0.01" x="24" y="24" width="24" height="24" transform="rotate(180 24 24)" fill="black"/>
<path fill-rule="evenodd" clip-rule="evenodd" d="M22 12C22 9.34784 20.9464 6.8043 19.0711 4.92893C17.1957 3.05357 14.6522 2 12 2C6.47715 2 2 6.47715 2 12C2 17.5228 6.47715 22 12 22C17.5228 22 22 17.5228 22 12ZM19.93 11H17C16.8351 8.64814 16.0293 6.38635 14.67 4.46C17.5179 5.47146 19.5527 8.00146 19.93 11ZM15 13H9.08C9.28119 15.4693 10.3101 17.7984 12 19.61C13.6911 17.7908 14.7441 15.4706 15 13ZM9.08 11C9.31289 8.54183 10.3376 6.22572 12 4.4C13.7047 6.20612 14.7601 8.52804 15 11H9.08ZM7.07 11C7.2548 8.63672 8.07355 6.36702 9.44 4.43C6.54034 5.41209 4.45544 7.9629 4.07 11H7.07ZM4.07 13H7.07C7.23469 15.3613 8.04788 17.6313 9.42 19.56C6.5311 18.5732 4.45562 16.0283 4.07 13ZM17 13C16.8107 15.3577 15.9884 17.6207 14.62 19.55C17.4982 18.5586 19.5642 16.0196 19.95 13H17Z" fill="white"/>
</svg>
