<svg width="20" height="20" viewBox="0 0 20 20" fill="none" xmlns="http://www.w3.org/2000/svg">
<path fill-rule="evenodd" clip-rule="evenodd" d="M19.75 13.91C19.6382 13.5836 19.3661 13.338 19.03 13.26L13.03 11.89C12.6991 11.815 12.3527 11.9129 12.11 12.15C11.97 12.28 11.96 12.29 11.31 13.53C9.1532 12.5362 7.42499 10.8009 6.44 8.64L6.64257 8.53795C7.7115 7.99953 7.72731 7.99156 7.85 7.85C8.08714 7.60731 8.18503 7.26092 8.11 6.93L6.74 1C6.66203 0.663948 6.41635 0.391816 6.09 0.28C5.85647 0.196589 5.61531 0.1363 5.37 0.1C5.11725 0.0413953 4.85933 0.00789934 4.6 0C2.05949 0 0 2.05949 0 4.6C0.0110183 13.1006 6.89938 19.989 15.4 20C16.62 20 17.79 19.5154 18.6527 18.6527C19.5154 17.79 20 16.62 20 15.4C20.0003 15.1455 19.9802 14.8913 19.94 14.64C19.898 14.3916 19.8344 14.1474 19.75 13.91ZM15.4 18C8.00167 17.9945 2.00551 11.9983 2 4.6C2.00548 3.16634 3.16634 2.00548 4.6 2H4.93L6 6.64L5.46 6.92C4.6 7.37 3.92 7.73 4.28 8.51C5.46718 11.8709 8.10412 14.5188 11.46 15.72C12.3 16.06 12.63 15.43 13.08 14.56L13.37 14.01L18 15.07V15.4C17.9945 16.8337 16.8337 17.9945 15.4 18ZM11 2C14.866 2 18 5.13401 18 9C18 9.55229 18.4477 10 19 10C19.5523 10 20 9.55229 20 9C20 4.02944 15.9706 0 11 0C10.4477 0 10 0.447715 10 1C10 1.55228 10.4477 2 11 2ZM11 6C12.6569 6 14 7.34315 14 9C14 9.55229 14.4477 10 15 10C15.5523 10 16 9.55229 16 9C16 6.23858 13.7614 4 11 4C10.4477 4 10 4.44772 10 5C10 5.55228 10.4477 6 11 6Z" fill="#A6A6A6"/>
</svg>
