<svg width="171" height="42" viewBox="0 0 171 42" fill="none" xmlns="http://www.w3.org/2000/svg">
<path fill-rule="evenodd" clip-rule="evenodd" d="M118.01 24.3053H118.411C118.164 26.9764 118.116 29.6349 118.112 32.3036C118.105 36.72 119.813 38.116 122.597 38.1184H125.457H125.522H125.528V16.8479C125.528 14.9086 125.28 14.5729 123.501 14.5729H119.559C117.527 14.5729 117.128 14.312 115.809 16.6522C113.749 20.3105 112.163 24.1311 110.168 28.1593H109.813C110.021 25.0976 110.051 21.6962 110.047 18.3887C110.042 14.4496 110.546 14.5729 106.941 14.5729H105.579C102.367 14.5729 102.635 14.5777 102.635 18.3179V35.2007C102.635 38.2679 103.089 38.1184 104.858 38.1184H108.697C111.399 38.1184 111.403 38.2019 112.69 35.7137C114.607 32.0045 116.067 28.3764 118.01 24.3053ZM128.291 16.7946V37.7962L128.295 37.9458L128.307 38.0428L128.321 38.0866L128.323 38.0897L128.346 38.0993L128.428 38.112L128.565 38.1184H131.562C135.331 38.1184 135.964 36.6993 135.964 33.3441V29.3938H141.497V36.2411C141.523 37.2283 141.665 38.0905 143.088 38.1184H147.231C148.974 38.1184 149.17 37.7389 149.17 35.8307V14.5729H146.317C144.653 14.5729 141.497 14.4838 141.497 19.3854V23.0294H135.964V16.6864C135.964 14.5109 135.96 14.5729 133.783 14.5729H130.496C128.252 14.5729 128.291 14.557 128.291 16.7946ZM170.232 17.2488L170.231 14.6922L170.219 14.6254L170.206 14.5976L170.201 14.5904L170.189 14.5849L170.14 14.5729L170.049 14.565L169.919 14.5682L169.757 14.5817L151.231 14.5849L151.074 14.6127L150.975 14.6397L150.927 14.6652L150.917 14.6755L150.909 14.6899L150.896 14.7264L150.888 14.8346L150.894 15.0001L150.909 20.5357L150.927 20.7035L150.952 20.8085L150.974 20.8578L150.982 20.8697L150.998 20.8785L151.047 20.8952L151.148 20.9087L151.307 20.8936H156.338C156.338 25.8747 156.336 31.0293 156.336 36.0104C156.336 37.8185 156.717 38.0611 158.285 38.0611H162.033C164.047 38.0611 164.095 37.4613 164.095 35.5912V20.9127L165.945 20.9119C168.291 20.9095 170.232 19.9749 170.232 17.2488ZM93.0841 25.8612C93.1781 29.3668 93.1173 33.6105 89.3203 33.6805C88.2997 33.6718 87.0633 33.3624 86.1218 32.9678V20.8117C86.9084 20.0218 88.1922 19.4618 89.3266 19.3329C92.7489 19.1014 93.1038 22.9292 93.0841 25.8612ZM90.469 13.9127C88.3266 14.0408 86.7218 14.8839 85.0941 16.2354C83.2466 10.3324 77.1373 16.3174 77.1539 16.3468C78.1713 18.1501 78.3769 19.3854 78.3982 21.4266V47.4618V47.675L78.4037 47.8428L78.4148 48.0003H78.4188H78.4599H80.8386C83.3438 48.0003 86.2917 47.3345 86.2917 42.868V37.2792C87.5519 37.8599 88.8452 38.361 90.2484 38.4485C94.5489 38.5376 98.1522 37.1296 99.8369 32.5908C100.797 29.5967 100.846 26.2558 100.45 23.1591C99.4606 17.0277 96.4502 13.6558 90.469 13.9127ZM54.614 14.6151H54.4567C54.4219 14.6199 54.3887 14.6254 54.3555 14.6294C54.3405 14.635 54.3239 14.6397 54.3073 14.6461C54.3041 14.6501 54.2994 14.6533 54.2946 14.6557C54.2915 14.662 54.2883 14.6652 54.2851 14.6676C54.2796 14.6859 54.2733 14.7026 54.2685 14.7177C54.263 14.7511 54.2567 14.7845 54.2519 14.8195C54.2496 14.872 54.2472 14.9245 54.2448 14.9762V16.3102V31.2401C54.3104 32.2296 53.6432 37.9975 59.5746 37.9983H59.6134H61.336L61.5494 37.9975H61.717L61.7802 37.9935L61.7771 37.9633L61.766 37.8901L61.7573 37.8089L61.751 37.7262L61.7494 37.6371V20.9724H65.0626C66.895 20.9724 68.4066 21.3224 68.4066 24.6147V35.1657C68.4066 37.6586 68.6864 38.1184 71.0359 38.1184H75.4961L75.704 38.116L75.8637 38.108L75.9444 38.0993L75.938 38.0643L75.9285 37.9983L75.9199 37.9259L75.9127 37.8439L75.9096 37.7572V22.8401C75.9096 18.512 74.1403 14.6397 67.5306 14.6151C63.8728 14.6016 60.0434 14.6421 56.2267 14.6262C55.6796 14.623 55.1421 14.6199 54.614 14.6151Z" fill="white"/>
<path fill-rule="evenodd" clip-rule="evenodd" d="M29.6911 37.9861C28.065 32.093 26.733 17.0928 26.5714 9.03884C26.5879 8.48178 26.3604 8 25.518 8H9.0781C7.8042 8 7.29746 8.26862 7.30609 9.61412C7.33668 15.1047 7.40022 26.4344 3.7205 31.1968H2.41837C1.35391 31.1968 0.951502 31.2483 0.806384 32.3117L0 37.9861H29.6911ZM20.5448 31.1968H11.7647C13.5148 27.608 14.0529 18.5881 14.2623 14.5072H19.7046C19.8192 19.5358 20.0992 25.749 20.5448 31.1968ZM50.77 30.5161V21.7339C50.643 14.9898 46.131 13.34 39.7677 13.6371C32.1259 14.4898 32.264 16.7014 32.9762 18.6087L33.9011 21.0857C35.9743 20.0754 43.1996 17.6792 43.2851 21.2355V22.9946L42.3775 23.0033L41.7876 23.0184L41.2025 23.0429L40.6181 23.0834L40.0368 23.1333L39.4603 23.1951L38.8916 23.2712L38.3291 23.3631L37.7769 23.4677L37.2356 23.5881L36.7038 23.7228L36.1853 23.8766L35.6825 24.0469L35.1946 24.2339L34.7231 24.4392L34.2697 24.6626L33.8368 24.9075L33.4226 25.1674L33.0296 25.4503L32.6601 25.7522L32.3134 26.0778L31.9926 26.4217L31.6961 26.791L31.4254 27.1817L31.1823 27.5985L30.9673 28.0406L30.783 28.5066L30.6285 29.001L30.5053 29.5256C30.2771 30.9511 30.3029 32.1278 30.6512 33.5296L30.7587 33.8933L30.8842 34.242L31.0238 34.5803L31.1799 34.9044L31.3533 35.2174L31.5376 35.5161L31.74 35.8054L31.9581 36.0787L32.1918 36.3387L32.4373 36.5875L32.6993 36.822L32.977 37.0423L33.2696 37.2499L33.5771 37.4433L33.8979 37.6247L34.2337 37.7895L34.5843 37.9425L34.9498 38.0772L35.3319 38.1984L35.7248 38.3038L36.1351 38.3949L36.5587 38.4702L36.9956 38.5289L37.4474 38.5701L37.9118 38.5962L38.3927 38.6057L38.5888 38.6025L38.7825 38.5962L38.9747 38.5843L39.163 38.5685L39.3504 38.551L39.534 38.5241L39.7175 38.4956L39.898 38.4631L40.0792 38.4243L40.2557 38.3854L40.4322 38.3379L40.6063 38.2864L40.7789 38.2309L40.9514 38.1723L41.1232 38.1113L41.2934 38.0391L41.4629 37.9694L41.6315 37.8926L41.801 37.8125L41.968 37.7269L42.1351 37.6374L42.3014 37.5407L42.4693 37.4433L42.6348 37.3418L42.8019 37.2333L42.9698 37.1208L43.1368 37.0059L43.3039 36.8862L43.471 36.761L43.6404 36.631L43.8091 36.4971L44.3111 36.089C45.4917 40.7658 49.3957 38.864 52 36.8878C51.3983 35.8371 50.7457 33.5605 50.77 30.5161ZM43.2851 31.9804L42.9988 32.257L42.8042 32.4345L42.605 32.6041L42.405 32.7618L42.2002 32.9099L41.9947 33.0454L41.7876 33.1706L41.5798 33.2863L41.3695 33.3893L41.157 33.4781L40.9483 33.5565L40.7373 33.6191L40.5263 33.6722L40.3161 33.7079L40.1058 33.7301L39.8972 33.7388L39.6352 33.7277L39.3732 33.6865L39.1214 33.6239L38.8766 33.5328L38.6437 33.4202L38.4225 33.2824L38.2162 33.1215L38.0256 32.9369C37.1862 31.9408 37.0113 30.6999 37.5471 29.5153L37.6333 29.3552L37.7298 29.2015L37.8396 29.0541L37.9604 28.9123L38.0922 28.7768L38.2366 28.6476L38.3927 28.5256L38.559 28.4099L38.7409 28.3013L38.93 28.1983L39.1324 28.1064L39.3481 28.02L39.5748 27.9384L39.8132 27.8655L40.0666 27.7997L40.3317 27.7379L40.611 27.6864L40.9036 27.6389L41.2111 27.6008L41.5327 27.5691L41.8669 27.5438L42.2175 27.5264L42.5846 27.5145L43.2851 27.5081V31.9804Z" fill="white"/>
<path fill-rule="evenodd" clip-rule="evenodd" d="M59.5659 10V1.96738H56.4333V10H54V0H62V10H59.5659Z" fill="white"/>
<path fill-rule="evenodd" clip-rule="evenodd" d="M67.6111 1.7583C66.2861 1.7583 65.3524 2.68123 65.3151 4.47582L69.5348 3.92522C69.5348 2.48639 68.7886 1.7583 67.6111 1.7583ZM71.9627 5.1692L65.4842 6.00458C65.7073 7.40712 66.7902 8.1005 68.2653 8.1005C69.2745 8.1005 70.3566 7.85123 71.0663 7.49546L71.7952 9.3082C70.9544 9.71681 69.5348 10 68.0788 10C64.7546 10 63 7.93958 63 4.99093C63 2.06042 64.7363 0 67.6683 0C70.4494 0 72 1.74095 72 4.35198C72 4.6186 72 4.88444 71.9627 5.1692Z" fill="white"/>
<path fill-rule="evenodd" clip-rule="evenodd" d="M78.5553 10V6.28934C77.9804 6.5678 77.2619 6.7713 76.5417 6.7713C74.2232 6.7713 73 5.56599 73 3.3218V0H75.4631V3.04251C75.4631 4.17532 76.0028 4.74955 77.1709 4.74955C77.6563 4.74955 78.1776 4.60208 78.5553 4.37881V0H81V10H78.5553Z" fill="white"/>
<path fill-rule="evenodd" clip-rule="evenodd" d="M87.6814 5.1688C85.8818 5.25793 84.3018 5.41647 84.3018 6.85597C84.3018 7.76227 85.0196 8.27654 86.2962 8.27654C86.8184 8.27654 87.4299 8.1882 87.6814 8.08172V5.1688ZM86.3689 10C83.4563 10 82 8.86339 82 6.9104C82 4.298 84.7505 3.78451 87.6814 3.62439V3.12589C87.6814 2.13204 86.9796 1.75816 85.8651 1.75816C84.9477 1.75816 83.8331 2.04212 83.1505 2.32687L82.5389 0.693327C83.3485 0.354946 84.7313 0 86.1341 0C88.6172 0 90 0.958353 90 3.41063V9.30825C89.2806 9.68055 87.8251 10 86.3689 10Z" fill="white"/>
<path fill-rule="evenodd" clip-rule="evenodd" d="M95.6895 1.98534V10H93.3097V1.98534H91V0H98V1.98534H95.6895Z" fill="white"/>
<path fill-rule="evenodd" clip-rule="evenodd" d="M104.681 5.1688C102.884 5.25793 101.301 5.41647 101.301 6.85597C101.301 7.76227 102.02 8.27654 103.296 8.27654C103.819 8.27654 104.43 8.1882 104.681 8.08172V5.1688ZM103.369 10C100.457 10 99 8.86339 99 6.9104C99 4.298 101.752 3.78451 104.681 3.62439V3.12589C104.681 2.13204 103.98 1.75816 102.865 1.75816C101.948 1.75816 100.835 2.04212 100.151 2.32687L99.5405 0.693327C100.349 0.354946 101.735 0 103.135 0C105.616 0 107 0.958353 107 3.41063V9.30825C106.282 9.68055 104.824 10 103.369 10Z" fill="white"/>
<path fill-rule="evenodd" clip-rule="evenodd" d="M112.612 1.7583C111.287 1.7583 110.351 2.68123 110.316 4.47582L114.535 3.92522C114.535 2.48639 113.789 1.7583 112.612 1.7583ZM116.963 5.1692L110.485 6.00458C110.708 7.40712 111.79 8.1005 113.264 8.1005C114.274 8.1005 115.357 7.85123 116.065 7.49546L116.794 9.3082C115.953 9.71681 114.535 10 113.079 10C109.755 10 108 7.93958 108 4.99093C108 2.06042 109.736 0 112.667 0C115.45 0 117 1.74095 117 4.35198C117 4.6186 117 4.88444 116.963 5.1692Z" fill="white"/>
<path fill-rule="evenodd" clip-rule="evenodd" d="M122.69 1.98534V10H120.31V1.98534H118V0H125V1.98534H122.69Z" fill="white"/>
</svg>
