<svg width="167" height="47" viewBox="0 0 167 47" fill="none" xmlns="http://www.w3.org/2000/svg">
<mask id="mask0" mask-type="alpha" maskUnits="userSpaceOnUse" x="53" y="13" width="114" height="34">
<path fill-rule="evenodd" clip-rule="evenodd" d="M53.2385 13.6159H166.251V47H53.2385V13.6159Z" fill="white"/>
</mask>
<g mask="url(#mask0)">
<path fill-rule="evenodd" clip-rule="evenodd" d="M115.369 23.9823H115.759C115.519 26.5771 115.472 29.1596 115.468 31.7521C115.462 36.0423 117.126 37.3984 119.838 37.4007H122.625H122.688H122.694V16.738C122.694 14.8541 122.453 14.528 120.719 14.528H116.878C114.898 14.528 114.51 14.2745 113.224 16.5479C111.217 20.1017 109.672 23.8131 107.728 27.7262H107.382C107.584 24.7519 107.614 21.4478 107.61 18.2348C107.605 14.4082 108.096 14.528 104.584 14.528H103.257C100.127 14.528 100.388 14.5326 100.388 18.166V34.5663C100.388 37.546 100.83 37.4007 102.554 37.4007H106.295C108.927 37.4007 108.931 37.4818 110.185 35.0648C112.053 31.4615 113.476 27.9371 115.369 23.9823ZM125.386 16.6862V37.0878L125.39 37.233L125.402 37.3273L125.415 37.3698L125.417 37.3729L125.44 37.3822L125.519 37.3945L125.653 37.4007H128.573C132.246 37.4007 132.862 36.0222 132.862 32.7628V28.9254H138.253V35.5771C138.279 36.536 138.417 37.3737 139.804 37.4007H143.841C145.539 37.4007 145.729 37.0321 145.729 35.1783V14.528H142.95C141.328 14.528 138.253 14.4414 138.253 19.203V22.7428H132.862V16.5811C132.862 14.4677 132.858 14.528 130.737 14.528H127.534C125.348 14.528 125.386 14.5125 125.386 16.6862ZM166.252 17.1274L166.251 14.6439L166.239 14.579L166.226 14.5519L166.222 14.545L166.209 14.5396L166.162 14.528L166.073 14.5203L165.947 14.5233L165.789 14.5365L147.738 14.5396L147.585 14.5666L147.489 14.5929L147.442 14.6176L147.432 14.6277L147.424 14.6416L147.412 14.6771L147.404 14.7822L147.409 14.9429L147.424 20.3203L147.442 20.4834L147.466 20.5854L147.487 20.6333L147.496 20.6449L147.511 20.6534L147.558 20.6696L147.657 20.6828L147.812 20.6681H152.714C152.714 25.5069 152.712 30.5142 152.712 35.353C152.712 37.1094 153.083 37.3451 154.611 37.3451H158.263C160.225 37.3451 160.272 36.7624 160.272 34.9458V20.6866L162.075 20.6858C164.361 20.6835 166.252 19.7756 166.252 17.1274ZM91.0819 25.4938C91.1736 28.8992 91.1143 33.0217 87.4146 33.0897C86.4202 33.0812 85.2155 32.7806 84.2981 32.3973V20.5885C85.0646 19.8212 86.3155 19.2772 87.4208 19.152C90.7553 18.9271 91.1012 22.6455 91.0819 25.4938ZM88.5338 13.8866C86.4464 14.011 84.8828 14.8301 83.2968 16.143C81.4967 10.4086 75.544 16.2226 75.5602 16.2512C76.5515 18.0029 76.7518 19.203 76.7726 21.1858V46.4772V46.6843L76.778 46.8473L76.7888 47.0003H76.7926H76.8327H79.1504C81.5914 47.0003 84.4637 46.3535 84.4637 42.0147V36.5855C85.6916 37.1496 86.9517 37.6364 88.3189 37.7214C92.5092 37.8079 96.0201 36.4402 97.6616 32.031C98.5974 29.1225 98.6452 25.877 98.2585 22.8688C97.2949 16.9126 94.3617 13.637 88.5338 13.8866ZM53.5982 14.5689H53.445C53.4111 14.5736 53.3787 14.579 53.3464 14.5828C53.3317 14.5883 53.3156 14.5929 53.2994 14.5991C53.2963 14.6029 53.2917 14.606 53.2871 14.6083C53.284 14.6145 53.2809 14.6176 53.2778 14.6199C53.2724 14.6377 53.2663 14.6539 53.2616 14.6686C53.2562 14.7011 53.2501 14.7335 53.2455 14.7675C53.2431 14.8185 53.2408 14.8695 53.2385 14.9198V16.2156V30.7189C53.3025 31.6802 52.6523 37.2833 58.4317 37.284H58.4694H60.1478L60.3558 37.2833H60.5191L60.5807 37.2794L60.5777 37.25L60.5669 37.1789L60.5584 37.1001L60.5522 37.0198L60.5507 36.9332V20.7446H63.7789C65.5644 20.7446 67.0371 21.0846 67.0371 24.2829V34.5323C67.0371 36.9541 67.3098 37.4007 69.5991 37.4007H73.9449L74.1475 37.3984L74.3031 37.3907L74.3817 37.3822L74.3755 37.3482L74.3663 37.284L74.3578 37.2137L74.3509 37.1341L74.3478 37.0499V22.5589C74.3478 18.3545 72.6239 14.5929 66.1837 14.5689C62.6196 14.5558 58.8885 14.5952 55.1696 14.5798C54.6366 14.5767 54.1128 14.5736 53.5982 14.5689Z" fill="#004A79"/>
</g>
<path fill-rule="evenodd" clip-rule="evenodd" d="M29.1201 38.0188C27.5253 32.3158 26.2189 17.7995 26.0605 10.0053C26.0766 9.46624 25.8535 9 25.0272 9H8.90352C7.65412 9 7.15712 9.25996 7.16559 10.5621C7.19559 15.8755 7.25791 26.8398 3.64896 31.4485H2.37186C1.32787 31.4485 0.933204 31.4983 0.790877 32.5274L0 38.0188H29.1201ZM20.1497 31.4485H11.5385C13.2549 27.9755 13.7826 19.2465 13.9881 15.2973H19.3257C19.438 20.1637 19.7127 26.1765 20.1497 31.4485ZM49.7937 30.7898V22.2909C49.6691 15.7643 45.2438 14.1677 39.003 14.4553C31.5081 15.2804 31.6435 17.4207 32.3421 19.2665L33.2491 21.6636C35.2825 20.6859 42.3688 18.367 42.4527 21.8085V23.5109L41.5626 23.5194L40.984 23.5339L40.4101 23.5577L39.8369 23.5968L39.2669 23.6451L38.7014 23.7049L38.1436 23.7785L37.592 23.8675L37.0504 23.9687L36.5196 24.0853L35.998 24.2156L35.4894 24.3644L34.9963 24.5293L34.5178 24.7103L34.0554 24.9089L33.6107 25.1251L33.186 25.3621L32.7798 25.6136L32.3944 25.8874L32.032 26.1795L31.692 26.4947L31.3773 26.8275L31.0865 27.1848L30.8211 27.5629L30.5826 27.9663L30.3718 28.3942L30.191 28.8451L30.0395 29.3236L29.9187 29.8312C29.6948 31.2108 29.7202 32.3495 30.0618 33.7061L30.1672 34.058L30.2903 34.3954L30.4272 34.7229L30.5803 35.0365L30.7503 35.3394L30.9311 35.6285L31.1296 35.9084L31.3435 36.173L31.5727 36.4245L31.8135 36.6653L32.0705 36.8923L32.3429 37.1055L32.6298 37.3064L32.9314 37.4935L33.2461 37.6691L33.5753 37.8286L33.9192 37.9766L34.2777 38.1069L34.6524 38.2243L35.0378 38.3263L35.4402 38.4145L35.8556 38.4873L36.2842 38.544L36.7273 38.5839L37.1827 38.6092L37.6543 38.6184L37.8467 38.6154L38.0367 38.6092L38.2252 38.5977L38.4098 38.5824L38.5937 38.5655L38.7737 38.5394L38.9538 38.5118L39.1307 38.4804L39.3084 38.4428L39.4815 38.4053L39.6546 38.3592L39.8254 38.3094L39.9947 38.2557L40.1639 38.199L40.3324 38.1399L40.4993 38.0701L40.6655 38.0027L40.8309 37.9283L40.9971 37.8508L41.161 37.768L41.3248 37.6814L41.4879 37.5878L41.6526 37.4935L41.8149 37.3953L41.9788 37.2903L42.1434 37.1814L42.3073 37.0702L42.4711 36.9544L42.635 36.8332L42.8012 36.7075L42.9666 36.5779L43.459 36.1829C44.6168 40.7088 48.4458 38.8684 51 36.9559C50.4099 35.9391 49.7698 33.736 49.7937 30.7898ZM42.4527 32.2069L42.1719 32.4745L41.9811 32.6463L41.7857 32.8104L41.5895 32.963L41.3887 33.1064L41.1871 33.2375L40.984 33.3587L40.7802 33.4706L40.574 33.5703L40.3655 33.6562L40.1608 33.7321L39.9539 33.7927L39.7469 33.8441L39.5408 33.8786L39.3346 33.9001L39.1299 33.9085L38.873 33.8978L38.616 33.8579L38.3691 33.7973L38.129 33.7091L37.9005 33.6002L37.6836 33.4668L37.4812 33.3111L37.2943 33.1325C36.4711 32.1685 36.2995 30.9677 36.825 29.8212L36.9096 29.6663L37.0043 29.5176L37.112 29.3749L37.2304 29.2377L37.3597 29.1065L37.5012 28.9816L37.6543 28.8635L37.8174 28.7515L37.9959 28.6464L38.1813 28.5468L38.3798 28.4578L38.5914 28.3742L38.8137 28.2952L39.0476 28.2247L39.2961 28.161L39.5561 28.1012L39.83 28.0514L40.117 28.0054L40.4186 27.9686L40.734 27.9379L41.0617 27.9133L41.4056 27.8965L41.7657 27.885L42.4527 27.8788V32.2069Z" fill="#D8213B"/>
<path fill-rule="evenodd" clip-rule="evenodd" d="M58.5659 9V1.77064H55.4333V9H53V0H61V9H58.5659Z" fill="#004A79"/>
<path fill-rule="evenodd" clip-rule="evenodd" d="M66.0988 1.7583C64.921 1.7583 64.091 2.68123 64.0579 4.47582L67.8087 3.92522C67.8087 2.48639 67.1454 1.7583 66.0988 1.7583ZM69.9668 5.1692L64.2082 6.00458C64.4065 7.40712 65.3691 8.1005 66.6803 8.1005C67.5773 8.1005 68.5392 7.85123 69.1701 7.49546L69.8179 9.3082C69.0706 9.71681 67.8087 10 66.5145 10C63.5596 10 62 7.93958 62 4.99093C62 2.06042 63.5434 0 66.1496 0C68.6217 0 70 1.74095 70 4.35198C70 4.6186 70 4.88444 69.9668 5.1692Z" fill="#004A79"/>
<path fill-rule="evenodd" clip-rule="evenodd" d="M76.5553 9V5.66041C75.9804 5.91102 75.2619 6.09417 74.5417 6.09417C72.2232 6.09417 71 5.00939 71 2.98962V0H73.4631V2.73826C73.4631 3.75779 74.0028 4.27459 75.1709 4.27459C75.6563 4.27459 76.1776 4.14187 76.5553 3.94093V0H79V9H76.5553Z" fill="#004A79"/>
<path fill-rule="evenodd" clip-rule="evenodd" d="M85.6814 5.1688C83.8818 5.25793 82.3018 5.41647 82.3018 6.85597C82.3018 7.76227 83.0196 8.27654 84.2962 8.27654C84.8184 8.27654 85.4299 8.1882 85.6814 8.08172V5.1688ZM84.3689 10C81.4563 10 80 8.86339 80 6.9104C80 4.298 82.7505 3.78451 85.6814 3.62439V3.12589C85.6814 2.13204 84.9796 1.75816 83.8651 1.75816C82.9477 1.75816 81.8331 2.04212 81.1505 2.32687L80.5389 0.693327C81.3485 0.354946 82.7313 0 84.1341 0C86.6172 0 88 0.958353 88 3.41063V9.30825C87.2806 9.68055 85.8251 10 84.3689 10Z" fill="#004A79"/>
<path fill-rule="evenodd" clip-rule="evenodd" d="M93.6895 1.7868V9H91.3097V1.7868H89V0H96V1.7868H93.6895Z" fill="#004A79"/>
<path fill-rule="evenodd" clip-rule="evenodd" d="M102.681 5.1688C100.884 5.25793 99.301 5.41647 99.301 6.85597C99.301 7.76227 100.02 8.27654 101.296 8.27654C101.819 8.27654 102.43 8.1882 102.681 8.08172V5.1688ZM101.369 10C98.4571 10 97 8.86339 97 6.9104C97 4.298 99.7521 3.78451 102.681 3.62439V3.12589C102.681 2.13204 101.98 1.75816 100.865 1.75816C99.9477 1.75816 98.8347 2.04212 98.1513 2.32687L97.5405 0.693327C98.3485 0.354946 99.7345 0 101.135 0C103.616 0 105 0.958353 105 3.41063V9.30825C104.282 9.68055 102.824 10 101.369 10Z" fill="#004A79"/>
<path fill-rule="evenodd" clip-rule="evenodd" d="M110.099 1.7583C108.921 1.7583 108.09 2.68123 108.058 4.47582L111.809 3.92522C111.809 2.48639 111.146 1.7583 110.099 1.7583ZM113.967 5.1692L108.209 6.00458C108.407 7.40712 109.369 8.1005 110.679 8.1005C111.577 8.1005 112.539 7.85123 113.169 7.49546L113.817 9.3082C113.069 9.71681 111.809 10 110.515 10C107.56 10 106 7.93958 106 4.99093C106 2.06042 107.543 0 110.149 0C112.622 0 114 1.74095 114 4.35198C114 4.6186 114 4.88444 113.967 5.1692Z" fill="#004A79"/>
<path fill-rule="evenodd" clip-rule="evenodd" d="M119.69 1.7868V9H117.31V1.7868H115V0H122V1.7868H119.69Z" fill="#004A79"/>
</svg>
