<svg width="24" height="24" viewBox="0 0 24 24" fill="none" xmlns="http://www.w3.org/2000/svg">
<rect opacity="0.01" x="24" y="24" width="24" height="24" transform="rotate(180 24 24)" fill="black"/>
<path fill-rule="evenodd" clip-rule="evenodd" d="M11.05 22H12.94C13.843 22.001 14.5873 21.292 14.63 20.39V19.3C14.63 19.16 14.74 19.06 14.89 19C15.0025 18.927 15.1475 18.927 15.26 19L16.03 19.74C16.3467 20.0548 16.7735 20.2341 17.22 20.24C17.6646 20.2391 18.0901 20.0588 18.4 19.74L19.71 18.41C20.0257 18.0965 20.2033 17.6699 20.2033 17.225C20.2033 16.7801 20.0257 16.3535 19.71 16.04L18.94 15.27C18.867 15.1575 18.867 15.0125 18.94 14.9C18.986 14.7767 19.0989 14.6911 19.23 14.68H20.32C21.2478 14.68 22 13.9278 22 13V11.06C22.001 10.157 21.292 9.41274 20.39 9.37H19.3C19.16 9.37 19.06 9.26 19 9.11C18.927 8.99746 18.927 8.85254 19 8.74L19.74 8C20.0684 7.68427 20.2498 7.24549 20.24 6.79C20.2396 6.34235 20.0594 5.91362 19.74 5.6L18.37 4.26C18.0565 3.94428 17.6299 3.76672 17.185 3.76672C16.7401 3.76672 16.3135 3.94428 16 4.26L15.31 5.06C15.1851 5.14005 15.0249 5.14005 14.9 5.06C14.7767 5.01403 14.6911 4.90109 14.68 4.77V3.68C14.68 2.75216 13.9278 2 13 2H11.06C10.1305 1.99998 9.3755 2.75055 9.37 3.68V4.7C9.37 4.84 9.26 4.94 9.11 5C8.99746 5.07298 8.85254 5.07298 8.74 5L8 4.26C7.67589 3.93789 7.23694 3.75799 6.78 3.76C6.33536 3.76087 5.9099 3.94115 5.6 4.26L4.26 5.63C3.94428 5.94352 3.76672 6.37006 3.76672 6.815C3.76672 7.25994 3.94428 7.68648 4.26 8L5.06 8.74C5.14005 8.86494 5.14005 9.02506 5.06 9.15C5.01403 9.27326 4.90109 9.35895 4.77 9.37H3.68C2.75216 9.37 2 10.1222 2 11.05V12.94C1.99998 13.8695 2.75055 14.6245 3.68 14.63H4.7C4.84 14.63 4.94 14.74 5 14.89C5.07298 15.0025 5.07298 15.1475 5 15.26L4.26 16C3.94034 16.3217 3.76064 16.7565 3.76 17.21C3.75931 17.6579 3.93962 18.087 4.26 18.4L5.63 19.74C5.94352 20.0557 6.37006 20.2333 6.815 20.2333C7.25994 20.2333 7.68648 20.0557 8 19.74L8.74 18.94C8.86494 18.8599 9.02506 18.8599 9.15 18.94C9.27326 18.986 9.35895 19.0989 9.37 19.23V20.32C9.37 21.2478 10.1222 22 11.05 22ZM12.63 20H11.37L11.33 19.19C11.2932 18.2608 10.7208 17.4374 9.86267 17.0791C9.00457 16.7209 8.01657 16.8929 7.33 17.52L6.78 18.06L5.9 17.18L6.44 16.64C7.1083 15.9523 7.29407 14.9286 6.91 14.05C6.55789 13.1751 5.71308 12.5987 4.77 12.59H4V11.33H4.77C5.69916 11.2932 6.5226 10.7208 6.88086 9.86267C7.23912 9.00457 7.06714 8.01657 6.44 7.33L5.9 6.78L6.78 5.9L7.32 6.44C8.00767 7.1083 9.03136 7.29407 9.91 6.91C10.7849 6.55789 11.3613 5.71308 11.37 4.77V4H12.67V4.77C12.7068 5.69916 13.2792 6.5226 14.1373 6.88086C14.9954 7.23912 15.9834 7.06714 16.67 6.44L17.22 5.9L18.1 6.78L17.56 7.32C16.8917 8.00767 16.7059 9.03136 17.09 9.91C17.4421 10.7849 18.2869 11.3613 19.23 11.37H20V12.66H19.22C18.2794 12.667 17.4352 13.239 17.08 14.11C16.7064 14.9818 16.896 15.9928 17.56 16.67L18.1 17.22L17.22 18.1L16.68 17.56C15.9923 16.8917 14.9686 16.7059 14.09 17.09C13.2151 17.4421 12.6387 18.2869 12.63 19.23V20Z" fill="#A6A6A6"/>
<path fill-rule="evenodd" clip-rule="evenodd" d="M8.7664 13.3395C9.30814 14.6474 10.5844 15.5001 12 15.5001C13.933 15.5001 15.5 13.9331 15.5 12.0001C15.5 10.5845 14.6472 9.30826 13.3394 8.76652C12.0315 8.22479 10.5261 8.52424 9.52511 9.52523C8.52411 10.5262 8.22467 12.0316 8.7664 13.3395ZM10.5 12.0001C10.5 11.1717 11.1716 10.5001 12 10.5001C12.8284 10.5001 13.5 11.1717 13.5 12.0001C13.5 12.8285 12.8284 13.5001 12 13.5001C11.1716 13.5001 10.5 12.8285 10.5 12.0001Z" fill="#A6A6A6"/>
</svg>
